<svg width="96" xmlns="http://www.w3.org/2000/svg" height="93.408" id="screenshot-2f79d30e-2a98-8071-8008-2178ce2ff7c4" viewBox="0 0 96 93.408" xmlns:xlink="http://www.w3.org/1999/xlink" fill="none" version="1.1"><g id="shape-2f79d30e-2a98-8071-8008-2178ce2ff7c4" width="273.3" height="266.1" xml:space="preserve" rx="0" ry="0" style="fill: rgb(0, 0, 0);"><g id="shape-2f79d30e-2a98-8071-8008-2178ce2ff7d7"><g class="fills" id="fills-2f79d30e-2a98-8071-8008-2178ce2ff7d7"><path d="M47.939453125,0.023061078041791916C56.6142578125,0.023061078041791916,65.32418823242188,-0.047251421958208084,73.99873352050781,0.057973187416791916C83.37593078613281,0.16344194114208221,90.11912536621094,4.588490962982178,94.15794372558594,13.01744556427002C95.42234802246094,15.68663501739502,95.98435974121094,18.566518783569336,95.98435974121094,21.516714096069336C95.98435974121094,38.2691535949707,96.01951599121094,55.0567512512207,95.98435974121094,71.80919647216797C95.98435974121094,82.66118621826172,88.01194763183594,91.75737762451172,77.22993469238281,93.23247528076172C76.07099914550781,93.37285614013672,74.91206359863281,93.40801239013672,73.71797180175781,93.40801239013672C56.438720703125,93.40801239013672,39.159423828125,93.40801239013672,21.880126953125,93.40801239013672C12.3271484375,93.40801239013672,4.28466796875,87.68340301513672,1.158935546875,78.72795867919922C0.3510741889476776,76.44518280029297,-1.588480813552451e-8,74.05699920654297,-1.588480813552451e-8,71.63365936279297C-1.588480813552451e-8,54.9161262512207,-1.588480813552451e-8,38.1988410949707,-1.588480813552451e-8,21.481557846069336C0.035156235098838806,10.59410572052002,8.358642578125,1.3575336933135986,19.17578125,0.16344194114208221C20.0888671875,0.057973187416791916,21.037109375,0.023061078041791916,21.9501953125,0.023061078041791916C30.625,0.023061078041791916,39.2646484375,0.023061078041791916,47.939453125,0.023061078041791916L47.939453125,0.023061078041791916" class="st0" style="overflow: visible; fill: rgb(55, 64, 37); fill-opacity: 1;"/></g></g><g id="shape-2f79d30e-2a98-8071-8008-2178ce2ff7d8"><g class="fills" id="fills-2f79d30e-2a98-8071-8008-2178ce2ff7d8"><path d="M46.9560546875,66.15489959716797C45.726806640625,66.15489959716797,44.46240234375,66.11974334716797,43.2333984375,66.15489959716797C42.63623046875,66.15489959716797,42.320068359375,65.90904998779297,42.109375,65.34703826904297C41.1962890625,62.5723762512207,40.212890625,59.7979621887207,39.2998046875,57.0235481262207C39.089111328125,56.4263801574707,38.77294921875,56.2156867980957,38.140869140625,56.2156867980957C33.785888671875,56.2508430480957,29.466064453125,56.2508430480957,25.111083984375,56.2156867980957C24.51416015625,56.2156867980957,24.197998046875,56.4263801574707,24.0224609375,57.0235481262207C23.179443359375,59.7276496887207,22.301513671875,62.4671516418457,21.42333984375,65.17150115966797C21.142578125,66.04943084716797,21.072265625,66.08458709716797,20.1943359375,66.08458709716797C17.981689453125,66.08458709716797,15.76904296875,66.08458709716797,13.556396484375,66.08458709716797C12.643310546875,66.08458709716797,12.572998046875,65.97911834716797,12.85400390625,65.13634490966797C14.92626953125,59.2010383605957,17.033447265625,53.2305793762207,19.10546875,47.2950325012207C21.282958984375,41.0787239074707,23.46044921875,34.8624153137207,25.567626953125,28.610952377319336C25.8837890625,27.697866439819336,25.9189453125,26.679311752319336,26.059326171875,25.731069564819336C26.164794921875,24.993520736694336,26.164794921875,24.923452377319336,26.90234375,24.923452377319336C30.028076171875,24.923452377319336,33.15380859375,24.923452377319336,36.314453125,24.923452377319336C36.80615234375,24.923452377319336,37.052001953125,25.098989486694336,37.227783203125,25.555532455444336C40.529052734375,34.7921028137207,43.795166015625,43.9937629699707,47.096435546875,53.2305793762207C48.50146484375,57.1290168762207,49.87109375,61.0272102355957,51.27587890625,64.89049530029297C51.697265625,66.04943084716797,51.627197265625,66.11974334716797,50.43310546875,66.11974334716797C49.239013671875,66.15489959716797,48.079833984375,66.15489959716797,46.9560546875,66.15489959716797ZM31.6435546875,32.5093879699707C31.5732421875,32.5093879699707,31.5380859375,32.5093879699707,31.468017578125,32.5093879699707C29.887451171875,37.8126106262207,28.27197265625,43.1158332824707,26.656494140625,48.4190559387207C29.992919921875,48.4190559387207,33.259033203125,48.4190559387207,36.560302734375,48.4190559387207C34.90966796875,43.0806770324707,33.259033203125,37.7774543762207,31.6435546875,32.5093879699707Z" class="st1" style="overflow: visible; fill: rgb(184, 197, 127); fill-opacity: 1;"/></g></g><g id="shape-2f79d30e-2a98-8071-8008-2178ce2ff7d9"><g class="fills" id="fills-2f79d30e-2a98-8071-8008-2178ce2ff7d9"><path d="M81.69013977050781,51.5447883605957C75.12275695800781,51.5447883605957,68.59030151367188,51.5447883605957,61.987548828125,51.5447883605957C62.2333984375,53.9678840637207,63.181884765625,55.8995246887207,65.28903198242188,57.1641731262207C66.93966674804688,58.1824836730957,68.80099487304688,58.4986457824707,70.69747924804688,58.6041145324707C73.19111633300781,58.7093391418457,75.64961242675781,58.3580207824707,78.10786437988281,57.7960090637207C78.38887023925781,57.7259407043457,78.63471984863281,57.6556282043457,78.98603820800781,57.5855598449707C78.98603820800781,57.8311653137207,79.02119445800781,58.0421028137207,79.02119445800781,58.2527961730957C79.02119445800781,60.0789680480957,79.02119445800781,61.9053840637207,79.02119445800781,63.7315559387207C79.02119445800781,64.18810272216797,78.88056945800781,64.43395233154297,78.42402648925781,64.60948944091797C75.22798156738281,65.80382537841797,71.92672729492188,66.19005584716797,68.51998901367188,66.15489959716797C66.02658081054688,66.11974334716797,63.603240966796875,65.66320037841797,61.3203125,64.57433319091797C57.52734375,62.7833137512207,55.10400390625,59.8331184387207,53.980224609375,55.8643684387207C52.36474609375,50.1397590637207,53.17236328125,44.6260871887207,56.15771484375,39.4984016418457C57.667724609375,36.8995246887207,60.05615234375,35.2838020324707,62.90087890625,34.3707160949707C66.37765502929688,33.2820930480957,69.85470581054688,33.2820930480957,73.33149719238281,34.4410285949707C77.61616516113281,35.8809700012207,80.10981750488281,39.0067024230957,81.19844055175781,43.2913703918457C81.86592102050781,45.9254035949707,81.79560852050781,48.6297492980957,81.79560852050781,51.3340950012207C81.76045227050781,51.4044075012207,81.72529602050781,51.4393196105957,81.69013977050781,51.5447883605957ZM73.71797180175781,45.7147102355957C73.64765930175781,43.5723762512207,72.76950073242188,41.9566535949707,71.04879760742188,40.8331184387207C68.97653198242188,39.4984016418457,66.79904174804688,39.4984016418457,64.69186401367188,40.7979621887207C62.935791015625,41.8865852355957,62.057861328125,43.5723762512207,61.987548828125,45.6795539855957C65.88595581054688,45.7147102355957,69.74923706054688,45.7147102355957,73.71797180175781,45.7147102355957Z" class="st1" style="overflow: visible; fill: rgb(184, 197, 127); fill-opacity: 1;"/></g></g></g></svg>